<?xml version="1.0" encoding="utf-8"?>
<!-- Generator: Adobe Illustrator 18.0.0, SVG Export Plug-In . SVG Version: 6.00 Build 0)  -->
<!DOCTYPE svg PUBLIC "-//W3C//DTD SVG 1.1//EN" "http://www.w3.org/Graphics/SVG/1.1/DTD/svg11.dtd">
<svg version="1.1" id="Layer_1" xmlns="http://www.w3.org/2000/svg" xmlns:xlink="http://www.w3.org/1999/xlink" x="0px" y="0px"
	 viewBox="0 0 256 256" style="enable-background:new 0 0 256 256;" xml:space="preserve">
<g id="Layer_1_1_">
	<rect style="fill:#EA9E30;" width="256" height="256"/>
</g>
<g>
	<g>
		<path style="fill:#FFFFFF;" d="M47,216.3v2.6c-2.3-2-4.6-4-6.9-6c-2.3-2-4.6-4-6.9-6c2.3-2,4.6-4,6.9-6c2.3-2,4.6-4,6.9-6v2.6
			c-1.8,1.6-3.6,3.2-5.4,4.7c-1.8,1.6-3.6,3.1-5.5,4.7c1.8,1.6,3.7,3.2,5.5,4.7C43.3,213.1,45.1,214.7,47,216.3z"/>
		<path style="fill:#FFFFFF;" d="M52.3,218.9v-2.6c1.8-1.6,3.7-3.2,5.5-4.7c1.8-1.6,3.6-3.1,5.4-4.7c-1.8-1.6-3.6-3.2-5.4-4.7
			c-1.8-1.6-3.6-3.1-5.5-4.7v-2.6c2.3,2,4.6,4,6.9,6c2.3,2,4.6,4,6.9,6c-2.3,2-4.6,4-6.9,6C56.9,214.9,54.6,216.9,52.3,218.9z"/>
	</g>
	<g>
		<path style="fill:#FFFFFF;" d="M47,260.7v2.6c-2.3-2-4.6-4-6.9-6c-2.3-2-4.6-4-6.9-6c2.3-2,4.6-4,6.9-6c2.3-2,4.6-4,6.9-6v2.6
			c-1.8,1.6-3.6,3.2-5.4,4.7c-1.8,1.6-3.6,3.1-5.5,4.7c1.8,1.6,3.7,3.2,5.5,4.7C43.3,257.6,45.1,259.1,47,260.7z"/>
		<path style="fill:#FFFFFF;" d="M52.3,263.4v-2.6c1.8-1.6,3.7-3.2,5.5-4.7c1.8-1.6,3.6-3.1,5.4-4.7c-1.8-1.6-3.6-3.2-5.4-4.7
			c-1.8-1.6-3.6-3.1-5.5-4.7v-2.6c2.3,2,4.6,4,6.9,6c2.3,2,4.6,4,6.9,6c-2.3,2-4.6,4-6.9,6C56.9,259.3,54.6,261.3,52.3,263.4z"/>
	</g>
	<g>
		<path style="fill:#FFFFFF;" d="M91.3,198.5v2.6c-2.3-2-4.6-4-6.9-6s-4.6-4-6.9-6c2.3-2,4.6-4,6.9-6s4.6-4,6.9-6v2.6
			c-1.8,1.6-3.6,3.2-5.4,4.7c-1.8,1.6-3.6,3.1-5.5,4.7c1.8,1.6,3.7,3.2,5.5,4.7C87.6,195.3,89.4,196.9,91.3,198.5z"/>
		<path style="fill:#FFFFFF;" d="M96.6,201.1v-2.6c1.8-1.6,3.7-3.2,5.5-4.7c1.8-1.6,3.6-3.1,5.4-4.7c-1.8-1.6-3.6-3.2-5.4-4.7
			c-1.8-1.6-3.6-3.1-5.5-4.7V177c2.3,2,4.6,4,6.9,6s4.6,4,6.9,6c-2.3,2-4.6,4-6.9,6C101.2,197.1,98.9,199.1,96.6,201.1z"/>
	</g>
	<g>
		<path style="fill:#FFFFFF;" d="M91.3,242.9v2.6c-2.3-2-4.6-4-6.9-6s-4.6-4-6.9-6c2.3-2,4.6-4,6.9-6s4.6-4,6.9-6v2.6
			c-1.8,1.6-3.6,3.2-5.4,4.7c-1.8,1.6-3.6,3.1-5.5,4.7c1.8,1.6,3.7,3.2,5.5,4.7C87.6,239.8,89.4,241.3,91.3,242.9z"/>
		<path style="fill:#FFFFFF;" d="M96.6,245.6V243c1.8-1.6,3.7-3.2,5.5-4.7c1.8-1.6,3.6-3.1,5.4-4.7c-1.8-1.6-3.6-3.2-5.4-4.7
			c-1.8-1.6-3.6-3.1-5.5-4.7v-2.6c2.3,2,4.6,4,6.9,6s4.6,4,6.9,6c-2.3,2-4.6,4-6.9,6C101.2,241.5,98.9,243.6,96.6,245.6z"/>
	</g>
	<g>
		<path style="fill:#FFFFFF;" d="M253.5,245.8v2.6c-2.3-2-4.6-4-6.9-6c-2.3-2-4.6-4-6.9-6c2.3-2,4.6-4,6.9-6c2.3-2,4.6-4,6.9-6v2.6
			c-1.8,1.6-3.6,3.2-5.4,4.7c-1.8,1.6-3.6,3.1-5.5,4.7c1.8,1.6,3.7,3.2,5.5,4.7C249.9,242.7,251.7,244.2,253.5,245.8z"/>
		<path style="fill:#FFFFFF;" d="M258.8,248.5v-2.6c1.8-1.6,3.7-3.2,5.5-4.7c1.8-1.6,3.6-3.1,5.4-4.7c-1.8-1.6-3.6-3.2-5.4-4.7
			c-1.8-1.6-3.6-3.1-5.5-4.7v-2.6c2.3,2,4.6,4,6.9,6s4.6,4,6.9,6c-2.3,2-4.6,4-6.9,6C263.5,244.4,261.1,246.5,258.8,248.5z"/>
	</g>
	<g>
		<path style="fill:#FFFFFF;" d="M132.7,223.1v2.6c-2.3-2-4.6-4-6.9-6c-2.3-2-4.6-4-6.9-6c2.3-2,4.6-4,6.9-6c2.3-2,4.6-4,6.9-6v2.6
			c-1.8,1.6-3.6,3.2-5.4,4.7c-1.8,1.6-3.6,3.1-5.5,4.7c1.8,1.6,3.7,3.2,5.5,4.7C129.1,219.9,130.9,221.5,132.7,223.1z"/>
		<path style="fill:#FFFFFF;" d="M138,225.7v-2.6c1.8-1.6,3.7-3.2,5.5-4.7c1.8-1.6,3.6-3.1,5.4-4.7c-1.8-1.6-3.6-3.2-5.4-4.7
			c-1.8-1.6-3.6-3.1-5.5-4.7v-2.6c2.3,2,4.6,4,6.9,6c2.3,2,4.6,4,6.9,6c-2.3,2-4.6,4-6.9,6C142.7,221.7,140.4,223.7,138,225.7z"/>
	</g>
	<g>
		<path style="fill:#FFFFFF;" d="M167.1,204.4v2.6c-2.3-2-4.6-4-6.9-6c-2.3-2-4.6-4-6.9-6c2.3-2,4.6-4,6.9-6c2.3-2,4.6-4,6.9-6v2.6
			c-1.8,1.6-3.6,3.2-5.4,4.7c-1.8,1.6-3.6,3.1-5.5,4.7c1.8,1.6,3.7,3.2,5.5,4.7C163.5,201.2,165.3,202.8,167.1,204.4z"/>
		<path style="fill:#FFFFFF;" d="M172.4,207v-2.6c1.8-1.6,3.7-3.2,5.5-4.7c1.8-1.6,3.6-3.1,5.4-4.7c-1.8-1.6-3.6-3.2-5.4-4.7
			c-1.8-1.6-3.6-3.1-5.5-4.7V183c2.3,2,4.6,4,6.9,6c2.3,2,4.6,4,6.9,6c-2.3,2-4.6,4-6.9,6S174.7,205,172.4,207z"/>
	</g>
	<g>
		<path style="fill:#FFFFFF;" d="M167.1,245.8v2.6c-2.3-2-4.6-4-6.9-6c-2.3-2-4.6-4-6.9-6c2.3-2,4.6-4,6.9-6c2.3-2,4.6-4,6.9-6v2.6
			c-1.8,1.6-3.6,3.2-5.4,4.7c-1.8,1.6-3.6,3.1-5.5,4.7c1.8,1.6,3.7,3.2,5.5,4.7C163.5,242.7,165.3,244.2,167.1,245.8z"/>
		<path style="fill:#FFFFFF;" d="M172.4,248.5v-2.6c1.8-1.6,3.7-3.2,5.5-4.7c1.8-1.6,3.6-3.1,5.4-4.7c-1.8-1.6-3.6-3.2-5.4-4.7
			c-1.8-1.6-3.6-3.1-5.5-4.7v-2.6c2.3,2,4.6,4,6.9,6c2.3,2,4.6,4,6.9,6c-2.3,2-4.6,4-6.9,6C177,244.4,174.7,246.5,172.4,248.5z"/>
	</g>
	<g>
		<path style="fill:#FFFFFF;" d="M211.4,222v2.6c-2.3-2-4.6-4-6.9-6c-2.3-2-4.6-4-6.9-6c2.3-2,4.6-4,6.9-6c2.3-2,4.6-4,6.9-6v2.6
			c-1.8,1.6-3.6,3.2-5.4,4.7c-1.8,1.6-3.6,3.1-5.5,4.7c1.8,1.6,3.7,3.2,5.5,4.7C207.8,218.9,209.6,220.5,211.4,222z"/>
		<path style="fill:#FFFFFF;" d="M216.7,224.7V222c1.8-1.6,3.7-3.2,5.5-4.7c1.8-1.6,3.6-3.1,5.4-4.7c-1.8-1.6-3.6-3.2-5.4-4.7
			c-1.8-1.6-3.6-3.1-5.5-4.7v-2.6c2.3,2,4.6,4,6.9,6c2.3,2,4.6,4,6.9,6c-2.3,2-4.6,4-6.9,6C221.3,220.7,219,222.7,216.7,224.7z"/>
	</g>
	<g>
		<path style="fill:#FFFFFF;" d="M252.9,202.2v2.6c-2.3-2-4.6-4-6.9-6c-2.3-2-4.6-4-6.9-6c2.3-2,4.6-4,6.9-6c2.3-2,4.6-4,6.9-6v2.6
			c-1.8,1.6-3.6,3.2-5.4,4.7c-1.8,1.6-3.6,3.1-5.5,4.7c1.8,1.6,3.7,3.2,5.5,4.7C249.2,199,251.1,200.6,252.9,202.2z"/>
		<path style="fill:#FFFFFF;" d="M258.2,204.8v-2.6c1.8-1.6,3.7-3.2,5.5-4.7c1.8-1.6,3.6-3.1,5.4-4.7c-1.8-1.6-3.6-3.2-5.4-4.7
			c-1.8-1.6-3.6-3.1-5.5-4.7v-2.6c2.3,2,4.6,4,6.9,6s4.6,4,6.9,6c-2.3,2-4.6,4-6.9,6C262.8,200.8,260.5,202.8,258.2,204.8z"/>
	</g>
	<g>
		<path style="fill:#FFFFFF;" d="M212,260.7v2.6c-2.3-2-4.6-4-6.9-6c-2.3-2-4.6-4-6.9-6c2.3-2,4.6-4,6.9-6c2.3-2,4.6-4,6.9-6v2.6
			c-1.8,1.6-3.6,3.2-5.4,4.7c-1.8,1.6-3.6,3.1-5.5,4.7c1.8,1.6,3.7,3.2,5.5,4.7C208.4,257.6,210.2,259.1,212,260.7z"/>
		<path style="fill:#FFFFFF;" d="M217.3,263.4v-2.6c1.8-1.6,3.7-3.2,5.5-4.7c1.8-1.6,3.6-3.1,5.4-4.7c-1.8-1.6-3.6-3.2-5.4-4.7
			c-1.8-1.6-3.6-3.1-5.5-4.7v-2.6c2.3,2,4.6,4,6.9,6c2.3,2,4.6,4,6.9,6c-2.3,2-4.6,4-6.9,6C222,259.3,219.7,261.3,217.3,263.4z"/>
	</g>
	<g>
		<path style="fill:#FFFFFF;" d="M13.9,245.8v2.6c-2.3-2-4.6-4-6.9-6s-4.6-4-6.9-6c2.3-2,4.6-4,6.9-6s4.6-4,6.9-6v2.6
			c-1.8,1.6-3.6,3.2-5.4,4.7c-1.8,1.6-3.6,3.1-5.5,4.7c1.8,1.6,3.7,3.2,5.5,4.7C10.3,242.7,12.1,244.2,13.9,245.8z"/>
		<path style="fill:#FFFFFF;" d="M19.2,248.5v-2.6c1.8-1.6,3.7-3.2,5.5-4.7c1.8-1.6,3.6-3.1,5.4-4.7c-1.8-1.6-3.6-3.2-5.4-4.7
			c-1.8-1.6-3.6-3.1-5.5-4.7v-2.6c2.3,2,4.6,4,6.9,6s4.6,4,6.9,6c-2.3,2-4.6,4-6.9,6C23.8,244.4,21.5,246.5,19.2,248.5z"/>
	</g>
</g>
<g>
	<path style="fill:#FFFFFF;" d="M39,62.3L39,62.3c-5,0-9-4-9-9v0c0-4.9,4-9,9-9h0c4.9,0,9,4,9,9v0C48,58.3,44,62.3,39,62.3z"/>
	<rect x="73" y="47.7" style="fill:#FFFFFF;" width="153" height="11.3"/>
</g>
<g>
	<path style="fill:#FFFFFF;" d="M39,100.8L39,100.8c-5,0-9-4-9-9v0c0-4.9,4-9,9-9h0c4.9,0,9,4,9,9v0C48,96.8,44,100.8,39,100.8z"/>
	<rect x="73" y="86.2" style="fill:#FFFFFF;" width="153" height="11.3"/>
</g>
<g>
	<path style="fill:#FFFFFF;" d="M39,139.4L39,139.4c-5,0-9-4.1-9-9v0c0-4.9,4-9,9-9h0c4.9,0,9,4,9,9v0C48,135.3,44,139.4,39,139.4z"
		/>
	<rect x="73" y="124.7" style="fill:#FFFFFF;" width="153" height="11.3"/>
</g>
</svg>
